<mxfile host="app.diagrams.net" modified="2023-05-30T01:22:50.366Z" agent="Mozilla/5.0 (Windows NT 10.0; Win64; x64; rv:109.0) Gecko/20100101 Firefox/113.0" version="21.3.2" etag="boMw0SIUmtLvTLYFXDt_" type="github">
  <diagram name="Page-1" id="jveekS8eLH1lc-K4kiw5">
    <mxGraphModel>
      <root>
        <mxCell id="0" />
        <mxCell id="1" parent="0" />
      </root>
    </mxGraphModel>
  </diagram>
</mxfile>
